<svg width="18" height="18" viewBox="0 0 18 18" fill="none" xmlns="http://www.w3.org/2000/svg">
<path d="M3.69577 12.2839C2.33827 12.6911 1.49902 13.2536 1.49902 13.875C1.49902 15.1177 4.85677 16.125 8.99902 16.125C13.1413 16.125 16.499 15.1177 16.499 13.875C16.499 13.2536 15.6594 12.6911 14.3023 12.2839" stroke="#9D9D9D" stroke-linecap="round" stroke-linejoin="round"/>
<path d="M8.99902 13.125C8.99902 13.125 13.874 9.93897 13.874 6.25572C13.874 3.62922 11.6915 1.49997 8.99902 1.49997C6.30652 1.49997 4.12402 3.62922 4.12402 6.25572C4.12402 9.93897 8.99902 13.125 8.99902 13.125Z" stroke="#9D9D9D" stroke-linejoin="round"/>
<path d="M8.99902 8.25C9.4963 8.25 9.97322 8.05246 10.3248 7.70082C10.6765 7.34919 10.874 6.87228 10.874 6.375C10.874 5.87772 10.6765 5.40081 10.3248 5.04917C9.97322 4.69754 9.4963 4.5 8.99902 4.5C8.50174 4.5 8.02483 4.69754 7.6732 5.04917C7.32157 5.40081 7.12402 5.87772 7.12402 6.375C7.12402 6.87228 7.32157 7.34919 7.6732 7.70082C8.02483 8.05246 8.50174 8.25 8.99902 8.25Z" stroke="#9D9D9D" stroke-linejoin="round"/>
</svg>
